<?xml version="1.0" standalone="no"?>
<!DOCTYPE svg PUBLIC "-//W3C//DTD SVG 20010904//EN"
 "http://www.w3.org/TR/2001/REC-SVG-20010904/DTD/svg10.dtd">
<svg version="1.0" xmlns="http://www.w3.org/2000/svg"
 width="1536.000000pt" height="1024.000000pt" viewBox="0 0 1536.000000 1024.000000"
 preserveAspectRatio="xMidYMid meet">

<g transform="translate(0.000000,1024.000000) scale(0.100000,-0.100000)"
fill="#000000" stroke="none">
<path d="M5266 7707 c-27 -5 -141 -56 -253 -113 -136 -68 -226 -108 -273 -118
-95 -22 -110 -21 -111 7 0 12 -5 31 -10 42 -7 14 -8 7 -4 -25 6 -48 -17 -144
-37 -156 -7 -4 -8 -3 -4 4 4 7 2 12 -4 12 -7 0 -10 -6 -7 -12 2 -7 -5 -24 -17
-38 l-21 -24 25 15 c14 9 35 31 48 50 13 19 35 37 50 40 l27 7 -27 1 c-30 1
-30 26 0 28 9 1 44 4 77 6 121 8 235 31 235 47 0 7 53 21 77 21 5 0 17 6 28
13 24 16 119 48 131 44 16 -4 84 13 84 21 0 7 67 44 85 46 22 2 84 39 79 47
-3 4 0 8 5 8 26 0 8 20 -26 29 -45 13 -90 12 -157 -2z"/>
<path d="M4506 7663 c-6 -14 -5 -15 5 -6 7 7 10 15 7 18 -3 3 -9 -2 -12 -12z"/>
<path d="M4639 7653 l-24 -28 28 24 c25 23 32 31 24 31 -2 0 -14 -12 -28 -27z"/>
<path d="M5455 7642 c-11 -21 -45 -54 -77 -76 -32 -22 -56 -42 -53 -44 8 -9
120 84 138 116 11 18 18 35 15 37 -2 2 -12 -13 -23 -33z"/>
<path d="M4490 7636 c0 -2 7 -7 16 -10 8 -3 12 -2 9 4 -6 10 -25 14 -25 6z"/>
<path d="M4530 7616 c0 -2 8 -10 18 -17 15 -13 16 -12 3 4 -13 16 -21 21 -21
13z"/>
<path d="M4237 7553 c-27 -47 -8 -155 38 -225 14 -21 25 -46 25 -55 0 -11 3
-14 8 -8 4 6 17 12 30 12 23 2 23 1 16 -65 -13 -125 -42 -213 -134 -397 -97
-196 -128 -297 -116 -383 7 -56 36 -87 72 -78 93 24 236 296 284 544 7 34 10
65 7 68 -3 3 -8 -14 -12 -38 -34 -213 -171 -510 -256 -554 -37 -18 -39 -18
-39 8 0 12 3 18 7 15 10 -11 31 39 43 101 11 60 37 140 52 157 4 5 8 18 8 30
0 12 6 27 13 34 6 6 12 15 13 19 2 18 19 48 31 55 7 4 13 16 13 25 0 9 7 26
15 36 8 11 15 27 15 37 0 9 7 22 15 29 9 7 15 29 15 51 0 22 5 39 10 39 6 0
10 7 10 15 0 8 4 15 9 15 16 0 31 61 32 129 l2 66 7 -60 c4 -33 6 -91 4 -130
-3 -66 -3 -67 6 -20 15 88 12 202 -6 219 -9 9 -11 16 -4 16 26 0 -1 16 -32 18
-60 4 -97 23 -137 68 -43 49 -66 119 -59 179 4 35 3 41 -5 28z"/>
<path d="M5235 7490 c-33 -16 -55 -29 -50 -29 6 0 37 13 70 29 33 15 56 28 50
28 -5 0 -37 -12 -70 -28z"/>
<path d="M6077 7460 c-265 -56 -514 -179 -787 -388 -100 -77 -398 -373 -489
-485 -89 -109 -235 -330 -314 -473 -219 -396 -328 -821 -314 -1229 7 -200 30
-322 88 -470 114 -292 334 -487 644 -570 95 -26 310 -31 439 -10 432 67 834
365 1156 855 121 184 138 238 84 262 -31 15 -45 3 -110 -98 -191 -296 -507
-590 -767 -715 -140 -67 -234 -90 -384 -96 -115 -5 -141 -3 -200 16 -76 22
-171 80 -219 132 -128 137 -199 362 -211 664 -20 530 165 1132 509 1651 280
424 589 699 898 800 73 24 102 28 205 28 110 1 125 -1 170 -25 33 -17 58 -38
73 -65 21 -35 23 -49 19 -129 -5 -105 -31 -183 -113 -347 -101 -204 -250 -423
-376 -554 -43 -45 -78 -88 -78 -96 0 -29 41 -67 91 -83 139 -47 255 28 414
265 154 230 240 458 252 670 16 272 -85 438 -302 496 -73 20 -271 17 -378 -6z"/>
<path d="M9898 7450 c-130 -27 -209 -55 -353 -125 -422 -204 -896 -655 -1179
-1121 -250 -413 -386 -857 -386 -1259 0 -374 103 -662 310 -866 175 -174 406
-259 699 -259 374 0 700 145 1020 455 122 119 211 227 316 388 98 151 138 233
124 258 -11 21 -52 35 -69 24 -6 -4 -43 -55 -82 -113 -273 -407 -613 -680
-966 -774 -98 -26 -297 -35 -384 -18 -297 57 -471 360 -472 820 0 404 124 876
335 1277 326 622 789 1087 1177 1184 110 27 257 24 317 -7 92 -48 116 -177 61
-339 -35 -103 -144 -322 -226 -453 -71 -112 -203 -284 -269 -347 -72 -69 -46
-123 72 -147 107 -23 180 20 306 180 133 169 236 377 292 592 29 107 36 314
15 402 -29 123 -110 213 -224 248 -87 27 -307 27 -434 0z"/>
<path d="M5130 7450 c-21 -7 -21 -8 -5 -9 11 0 27 4 35 9 18 11 5 11 -30 0z"/>
<path d="M5078 7433 c7 -3 16 -2 19 1 4 3 -2 6 -13 5 -11 0 -14 -3 -6 -6z"/>
<path d="M4995 7420 c-27 -7 -27 -8 -5 -8 14 0 36 4 50 8 20 6 21 8 5 8 -11 0
-33 -4 -50 -8z"/>
<path d="M4940 7414 c-8 -3 -58 -9 -110 -14 l-95 -9 105 5 c57 2 109 9 114 14
6 6 8 9 6 9 -3 -1 -12 -3 -20 -5z"/>
<path d="M7616 6609 c-179 -42 -305 -223 -236 -337 32 -52 96 -75 189 -70 97
6 154 33 237 110 168 158 128 309 -81 307 -38 -1 -87 -5 -109 -10z"/>
<path d="M11465 6599 c-79 -27 -163 -85 -200 -138 -26 -37 -30 -51 -30 -111 0
-58 3 -72 24 -94 60 -64 212 -75 323 -24 199 92 277 314 132 374 -50 21 -178
17 -249 -7z"/>
<path d="M7227 5770 c-129 -33 -244 -165 -362 -415 -104 -219 -191 -470 -231
-665 -34 -163 -31 -340 5 -434 84 -213 357 -277 627 -146 205 99 441 345 607
632 64 112 76 152 52 178 -34 37 -51 25 -121 -82 -162 -251 -368 -458 -534
-537 -120 -58 -232 -49 -284 22 -30 41 -29 190 3 302 71 253 242 622 392 850
99 150 115 194 85 240 -9 13 -30 32 -46 40 -38 20 -142 27 -193 15z"/>
<path d="M11053 5766 c-149 -47 -270 -212 -423 -574 -65 -155 -143 -391 -169
-507 -65 -301 -11 -506 157 -598 172 -94 407 -67 615 69 90 59 303 273 379
379 76 108 178 278 193 323 15 41 6 67 -24 77 -33 10 -51 -6 -125 -119 -184
-278 -404 -488 -573 -548 -75 -26 -179 -22 -220 8 -71 53 -87 124 -59 262 50
247 253 695 442 977 81 122 91 160 54 208 -40 50 -157 71 -247 43z"/>
<path d="M8009 3608 c-14 -27 -58 -178 -90 -310 -22 -94 -24 -98 -50 -98 -33
0 -75 -32 -64 -49 5 -9 19 -11 42 -6 34 6 35 5 29 -19 -16 -63 -18 -114 -6
-121 19 -12 37 19 51 84 7 31 15 59 19 64 5 6 162 36 192 37 3 0 18 -38 33
-85 31 -96 75 -165 105 -165 33 0 34 26 2 72 -26 37 -72 153 -72 180 0 4 18
11 40 14 84 14 78 60 -6 51 -30 -3 -54 -4 -54 -2 0 19 -84 325 -96 346 -18 36
-58 40 -75 7z m51 -83 c0 -11 15 -80 34 -153 18 -73 31 -134 27 -136 -3 -2
-33 -7 -66 -10 -33 -4 -70 -10 -82 -13 -21 -5 -21 -5 8 114 49 197 63 243 71
230 4 -7 8 -21 8 -32z"/>
<path d="M10344 3425 c-8 -21 2 -45 19 -45 20 0 40 27 33 45 -7 19 -45 20 -52
0z"/>
<path d="M9258 3354 c-33 -17 -48 -43 -48 -82 0 -37 24 -58 113 -102 80 -39
93 -65 45 -88 -39 -18 -77 1 -103 52 -14 26 -30 42 -48 47 -23 6 -31 2 -57
-31 -51 -64 -138 -91 -173 -52 -28 31 -21 49 23 56 57 9 110 58 110 103 0 46
-14 69 -47 80 -36 12 -83 0 -110 -29 -12 -13 -30 -50 -41 -83 -16 -49 -29 -68
-71 -102 -41 -34 -60 -43 -89 -43 -50 0 -71 17 -78 62 -9 53 3 101 31 132 33
35 51 33 66 -9 8 -22 20 -35 30 -35 26 0 30 12 18 53 -11 41 -33 57 -79 57
-118 0 -176 -219 -76 -285 61 -40 161 -23 211 37 25 29 26 30 40 12 8 -11 15
-22 15 -27 0 -15 66 -47 95 -47 63 1 135 49 162 108 l11 27 1 -28 c1 -16 15
-42 35 -65 33 -35 38 -37 96 -37 57 0 64 2 91 33 16 18 29 42 29 53 0 22 -62
89 -83 89 -29 0 -117 50 -117 66 0 42 71 58 110 24 28 -24 46 -25 54 -4 7 20
-9 50 -34 64 -27 15 -101 12 -132 -6z m-200 -66 c17 -17 15 -53 -5 -70 -21
-18 -79 -39 -86 -31 -9 8 15 67 36 91 23 25 37 28 55 10z"/>
<path d="M9533 3335 c-30 -30 -35 -40 -29 -68 7 -39 45 -72 107 -92 79 -27
104 -78 47 -97 -39 -13 -78 9 -106 60 -25 44 -29 47 -51 33 -20 -13 -6 -56 32
-97 26 -28 41 -36 82 -40 60 -6 115 19 130 60 16 45 -10 76 -100 122 -80 41
-98 62 -75 89 16 20 55 19 90 -1 28 -17 60 -14 60 6 0 6 -11 22 -25 35 -19 20
-34 25 -76 25 -45 0 -55 -4 -86 -35z"/>
<path d="M10060 3355 c-10 -12 -11 -48 -7 -143 7 -145 12 -172 36 -172 27 0
41 21 41 65 0 45 46 134 82 159 12 9 35 16 50 16 16 0 28 4 28 9 0 55 -55 55
-115 0 -24 -22 -47 -51 -51 -62 -7 -22 -8 -21 -15 3 -4 14 -7 44 -8 67 -2 69
-16 89 -41 58z"/>
<path d="M10821 3356 c-51 -28 -66 -99 -28 -133 12 -12 49 -34 83 -51 75 -38
88 -52 70 -77 -9 -13 -25 -18 -52 -17 -41 1 -63 20 -96 81 -22 40 -40 39 -80
-4 -82 -91 -173 -101 -201 -22 -5 14 -1 17 24 17 38 0 103 33 123 62 22 31 20
70 -5 102 -17 21 -29 26 -66 26 -39 0 -50 -5 -78 -34 -64 -68 -72 -192 -15
-240 63 -52 147 -41 216 28 l42 42 16 -33 c20 -43 57 -65 114 -70 85 -7 145
55 111 116 -8 16 -43 40 -88 63 -92 46 -105 62 -75 92 22 22 64 20 90 -5 26
-25 54 -19 54 10 0 49 -101 79 -159 47z m-201 -71 c19 -22 4 -63 -30 -80 -59
-31 -85 -14 -59 38 29 55 64 72 89 42z"/>
<path d="M8408 3329 c-29 -16 -68 -94 -75 -146 -10 -89 35 -143 120 -143 75 0
169 64 147 99 -5 10 -21 4 -60 -23 -60 -41 -86 -45 -124 -15 -21 17 -26 29
-26 65 0 54 21 109 48 123 23 12 37 1 47 -42 5 -18 14 -27 26 -27 38 0 37 62
-1 100 -22 22 -73 26 -102 9z"/>
<path d="M10330 3314 c-6 -14 -10 -67 -10 -117 0 -110 20 -157 68 -157 49 0
71 37 25 42 l-28 3 -3 128 c-2 119 -4 127 -23 127 -12 0 -23 -10 -29 -26z"/>
<path d="M9829 3307 c-134 -89 -50 -305 91 -232 67 35 93 107 65 181 -28 72
-92 94 -156 51z m95 -49 c9 -12 16 -41 16 -63 0 -56 -22 -85 -65 -85 -62 0
-85 72 -45 138 24 40 70 45 94 10z"/>
</g>
</svg>
